<?xml version="1.0" encoding="utf-8"?>
<?xml-stylesheet type="text/xsl" href="rss1.xsl"?>
<rss version="2.0" xmlns:atom="http://www.w3.org/2005/Atom" xmlns:content="http://purl.org/rss/1.0/modules/content/" xmlns:dc="http://purl.org/dc/elements/1.1/" xmlns:media="http://search.yahoo.com/mrss/">
<channel>
 <title>Getty</title>
 <link>http://www.gettyimg.com/</link>
 <atom:link href="http://www.gettyimg.com/" rel="self" type="application/rss+xml" />

 
                <item>
                <title><![CDATA[【Requests】[REQ AUD] - Michael Jackson - HIStory On Film, Volume II (Laserdisc rip)]]></title>
                <link><![CDATA[https://sharemania.us/threads/michael-jackson-history-on-film-volume-ii-laserdisc-rip.237048/]]></link>
                <description><![CDATA[<article>
<blockquote class="messageText SelectQuoteContainer ugc baseHtml">
Could someone give me a laserdisc rip of this treasure? Thank you so much!
<div class="messageTextEndMarker">&nbsp;</div>
</blockquote>
</article>]]></description>
                <author><![CDATA[pcaccount]]></author>
                </item>

                
                <item>
                <title><![CDATA[【Requests】[REQ VID] - Gabrielle - Live at BBC Radio 2's Piano Room - (02.02.2024)]]></title>
                <link><![CDATA[https://sharemania.us/threads/gabrielle-live-at-bbc-radio-2s-piano-room-02-02-2024.237049/]]></link>
                <description><![CDATA[<article>
<blockquote class="messageText SelectQuoteContainer ugc baseHtml">
Hello,<br>
<br>
Is anyone able to post Gabrielle - Live at BBC Radio 2's Piano Room?<br>
I can't watch because I'm outside of the UK.<br>
<br>
Thank you so much for your kindness.<br>
<br>
<a href="https://www.bbc.co.uk/iplayer/episode/p0h43pdm/radio-2s-piano-room-piano-room-month-2024-gabrielle" target="_blank" class="externalLink" rel="nofollow">https://www.bbc.co.uk/iplayer/episode/p0h43pdm/radio-2s-piano-room-piano-room-month-2024-gabrielle</a>
<div class="messageTextEndMarker">&nbsp;</div>
</blockquote>
</article>]]></description>
                <author><![CDATA[dongngi]]></author>
                </item>

                
                <item>
                <title><![CDATA[【HD Live Performances】WEB-RiP - Jennifer.Lopez.Saturday.Night.Live.S49E11.02.03.2024.1080p.HULU.WEB-DL.DDP5.1.H.264-None]]></title>
                <link><![CDATA[https://sharemania.us/threads/jennifer-lopez-saturday-night-live-s49e11-02-03-2024-1080p-hulu-web-dl-ddp5-1-h-264-none.237050/]]></link>
                <description><![CDATA[<article>
<blockquote class="messageText SelectQuoteContainer ugc baseHtml">
<div style="text-align: center"><span style="font-family: 'Times New Roman'"><img src="https://i.imgur.com/ItkXKhX.jpeg" class="bbCodeImage LbImage" alt="[​IMG]" data-url="https://i.imgur.com/ItkXKhX.jpeg" style=""><span style="font-size: 15px"> <br>
</span></span>​</div>
<div class="ToggleTriggerAnchor bbCodeSpoilerContainer">
<button type="button" class="button bbCodeSpoilerButton ToggleTrigger Tooltip JsOnly" data-target="> .SpoilerTarget"><span>Spoiler: <span class="SpoilerTitle">MediaInfo</span></span></button>
<div class="SpoilerTarget bbCodeSpoilerText"><span style="font-family: 'Times New Roman'"><span style="font-size: 15px">General<br>
Unique ID : 180132022974219435431071833885011206393 (0x87842A6B3E66E2FBFC2185C6B529E0F9)<br>
Complete name : D:\Jennifer.Lopez-Can't.Get.Enough.Latto.REDMAN Saturday.Night.Live.S49E11.02.03.2024.1080p.HULU.WEB-DL.DDP5.1.H.264-None.mkv<br>
Format : Matroska<br>
Format version : Version 4<br>
File size : 240 MiB<br>
Duration : 3 min 58 s<br>
Overall bit rate mode : Constant<br>
Overall bit rate : 8 457 kb/s<br>
Writing application : VideoReDo (Lavf57.71.100)<br>
Writing library : VideoReDo (Lavf57.71.100)<br>
ErrorDetectionType : Per level 1<br>
<br>
Video<br>
ID : 1<br>
Format : AVC<br>
Format/Info : Advanced Video Codec<br>
Format profile : High@L4.2<br>
Format settings : CABAC / 4 Ref Frames<br>
Format settings, CABAC : Yes<br>
Format settings, Reference frames : 4 frames<br>
Codec ID : V_MPEG4/ISO/AVC<br>
Duration : 3 min 57 s<br>
Bit rate mode : Constant<br>
Bit rate : 8 200 kb/s<br>
Width : 1 920 pixels<br>
Height : 1 080 pixels<br>
Display aspect ratio : 16:9<br>
Frame rate mode : Constant<br>
Frame rate : 59.940 (60000/1001) FPS<br>
Color space : YUV<br>
Chroma subsampling : 4:2:0<br>
Bit depth : 8 bits<br>
Scan type : Progressive<br>
Bits/(Pixel*Frame) : 0.066<br>
Stream size : 228 MiB (95%)<br>
Default : No<br>
Forced : No<br>
<br>
Audio<br>
ID : 2<br>
Format : E-AC-3<br>
Format/Info : Enhanced AC-3<br>
Commercial name : Dolby Digital Plus<br>
Codec ID : A_EAC3<br>
Duration : 3 min 57 s<br>
Bit rate mode : Constant<br>
Bit rate : 256 kb/s<br>
Channel(s) : 6 channels<br>
ChannelLayout_Original : L R C LFE Ls Rs<br>
Sampling rate : 48.0 kHz<br>
Frame rate : 31.250 FPS (1536 SPF)<br>
Compression mode : Lossy<br>
Stream size : 7.26 MiB (3%)<br>
Language : English<br>
Service kind : Complete Main<br>
Default : Yes<br>
Forced : No<br>
<br>
Menu<br>
00:00:00.000 : Chapter 0<br>
<br>
<br>
</span></span></div>
</div><br>
<div style="text-align: center"><span style="font-family: 'Times New Roman'"><span style="font-size: 15px"><br>
<div class="bbCodeBlock bbCodeVfcHH HiddenContent">
<div class="attribution type">Hidden Content:</div>
<blockquote>You must either reply or click 'Like' to see the hidden information contained here.</blockquote>
</div><img src="https://i.imgur.com/JpvJbXt.jpeg" class="bbCodeImage LbImage" alt="[​IMG]" data-url="https://i.imgur.com/JpvJbXt.jpeg" style=""> <br>
<br>
</span></span>​</div>
<div class="ToggleTriggerAnchor bbCodeSpoilerContainer">
<button type="button" class="button bbCodeSpoilerButton ToggleTrigger Tooltip JsOnly" data-target="> .SpoilerTarget"><span>Spoiler: <span class="SpoilerTitle">MediaInfo</span></span></button>
<div class="SpoilerTarget bbCodeSpoilerText"><span style="font-family: 'Times New Roman'"><span style="font-size: 15px">General<br>
Unique ID : 91009086026097344262289162688404588050 (0x4477B65FC62E6476A97E24A464FF0612)<br>
Complete name : D:\Jennifer.Lopez- This.Is Me…Now.Saturday.Night.Live.S49E11.02.03.2024.1080p.HULU.WEB-DL.DDP5.1.H.264-None.mkv<br>
Format : Matroska<br>
Format version : Version 4<br>
File size : 261 MiB<br>
Duration : 4 min 19 s<br>
Overall bit rate mode : Constant<br>
Overall bit rate : 8 442 kb/s<br>
Writing application : VideoReDo (Lavf57.71.100)<br>
Writing library : VideoReDo (Lavf57.71.100)<br>
ErrorDetectionType : Per level 1<br>
<br>
Video<br>
ID : 1<br>
Format : AVC<br>
Format/Info : Advanced Video Codec<br>
Format profile : High@L4.2<br>
Format settings : CABAC / 4 Ref Frames<br>
Format settings, CABAC : Yes<br>
Format settings, Reference frames : 4 frames<br>
Codec ID : V_MPEG4/ISO/AVC<br>
Duration : 4 min 19 s<br>
Bit rate mode : Constant<br>
Bit rate : 8 200 kb/s<br>
Width : 1 920 pixels<br>
Height : 1 080 pixels<br>
Display aspect ratio : 16:9<br>
Frame rate mode : Constant<br>
Frame rate : 59.940 (60000/1001) FPS<br>
Color space : YUV<br>
Chroma subsampling : 4:2:0<br>
Bit depth : 8 bits<br>
Scan type : Progressive<br>
Bits/(Pixel*Frame) : 0.066<br>
Stream size : 248 MiB (95%)<br>
Writing library : x264 core 152 r2245<br>
Encoding settings : cabac=1 / ref=4 / deblock=1:0:0 / analyse=0x3:0x113 / me=hex / subme=4 / psy=1 / psy_rd=1.00:0.00 / mixed_ref=0 / me_range=16 / chroma_me=1 / trellis=1 / 8x8dct=1 / cqm=0 / deadzone=21,11 / fast_pskip=1 / chroma_qp_offset=0 / threads=18 / lookahead_threads=4 / sliced_threads=0 / nr=0 / decimate=1 / interlaced=0 / bluray_compat=0 / constrained_intra=0 / bframes=3 / b_pyramid=2 / b_adapt=1 / b_bias=0 / direct=1 / weightb=1 / open_gop=0 / weightp=1 / keyint=150 / keyint_min=15 / scenecut=0 / intra_refresh=0 / rc_lookahead=20 / rc=cbr / mbtree=1 / bitrate=11150 / ratetol=1.0 / qcomp=0.60 / qpmin=0 / qpmax=69 / qpstep=4 / vbv_maxrate=11150 / vbv_bufsize=20500 / nal_hrd=none / filler=0 / ip_ratio=1.40 / aq=1:1.00<br>
Default : No<br>
Forced : No<br>
<br>
Audio<br>
ID : 2<br>
Format : E-AC-3<br>
Format/Info : Enhanced AC-3<br>
Commercial name : Dolby Digital Plus<br>
Codec ID : A_EAC3<br>
Duration : 4 min 19 s<br>
Bit rate mode : Constant<br>
Bit rate : 256 kb/s<br>
Channel(s) : 6 channels<br>
ChannelLayout_Original : L R C LFE Ls Rs<br>
Sampling rate : 48.0 kHz<br>
Frame rate : 31.250 FPS (1536 SPF)<br>
Compression mode : Lossy<br>
Stream size : 7.90 MiB (3%)<br>
Language : English<br>
Service kind : Complete Main<br>
Default : Yes<br>
Forced : No<br>
<br>
Menu<br>
00:00:00.000 : Chapter 0<br>
<br>
<br>
</span></span></div>
</div><br>
<div style="text-align: center"><span style="font-family: 'Times New Roman'"><span style="font-size: 15px"><br>
<div class="bbCodeBlock bbCodeVfcHH HiddenContent">
<div class="attribution type">Hidden Content:</div>
<blockquote>You must either reply or click 'Like' to see the hidden information contained here.</blockquote>
</div></span><br>
<br>
Ripper:None</span>​</div>
<div class="messageTextEndMarker">&nbsp;</div>
</blockquote>
</article>]]></description>
                <author><![CDATA[mariellisaa]]></author>
                </item>

                </channel></rss>